<svg xmlns="http://www.w3.org/2000/svg" xmlns:xlink="http://www.w3.org/1999/xlink" width="1024" height="400">\n<path  d="M 0 0
L 1024 0
L 1024 400
L 0 400
L 0 0" style="stroke-width:0;stroke:rgba(255,255,255,1.0);fill:rgba(255,255,255,1.0)"/><path  d="M 18 11
L 961 11
L 961 351
L 18 351
L 18 11" style="stroke-width:0;stroke:rgba(255,255,255,1.0);fill:rgba(255,255,255,1.0)"/><path  d="M 18 351
L 961 351" style="stroke-width:1;stroke:rgba(51,51,51,1.0);fill:none"/><path  d="M 18 351
L 18 356" style="stroke-width:1;stroke:rgba(51,51,51,1.0);fill:none"/><text x="5" y="373" style="stroke-width:0;stroke:none;fill:rgba(51,51,51,1.0);font-size:12.8px;font-family:'Roboto Medium',sans-serif">0.00</text><path  d="M 72 351
L 72 356" style="stroke-width:1;stroke:rgba(51,51,51,1.0);fill:none"/><text x="59" y="373" style="stroke-width:0;stroke:none;fill:rgba(51,51,51,1.0);font-size:12.8px;font-family:'Roboto Medium',sans-serif">3.40</text><path  d="M 124 351
L 124 356" style="stroke-width:1;stroke:rgba(51,51,51,1.0);fill:none"/><text x="111" y="373" style="stroke-width:0;stroke:none;fill:rgba(51,51,51,1.0);font-size:12.8px;font-family:'Roboto Medium',sans-serif">6.70</text><path  d="M 176 351
L 176 356" style="stroke-width:1;stroke:rgba(51,51,51,1.0);fill:none"/><text x="160" y="373" style="stroke-width:0;stroke:none;fill:rgba(51,51,51,1.0);font-size:12.8px;font-family:'Roboto Medium',sans-serif">10.00</text><path  d="M 229 351
L 229 356" style="stroke-width:1;stroke:rgba(51,51,51,1.0);fill:none"/><text x="213" y="373" style="stroke-width:0;stroke:none;fill:rgba(51,51,51,1.0);font-size:12.8px;font-family:'Roboto Medium',sans-serif">13.40</text><path  d="M 281 351
L 281 356" style="stroke-width:1;stroke:rgba(51,51,51,1.0);fill:none"/><text x="265" y="373" style="stroke-width:0;stroke:none;fill:rgba(51,51,51,1.0);font-size:12.8px;font-family:'Roboto Medium',sans-serif">16.70</text><path  d="M 333 351
L 333 356" style="stroke-width:1;stroke:rgba(51,51,51,1.0);fill:none"/><text x="317" y="373" style="stroke-width:0;stroke:none;fill:rgba(51,51,51,1.0);font-size:12.8px;font-family:'Roboto Medium',sans-serif">20.00</text><path  d="M 386 351
L 386 356" style="stroke-width:1;stroke:rgba(51,51,51,1.0);fill:none"/><text x="370" y="373" style="stroke-width:0;stroke:none;fill:rgba(51,51,51,1.0);font-size:12.8px;font-family:'Roboto Medium',sans-serif">23.40</text><path  d="M 438 351
L 438 356" style="stroke-width:1;stroke:rgba(51,51,51,1.0);fill:none"/><text x="422" y="373" style="stroke-width:0;stroke:none;fill:rgba(51,51,51,1.0);font-size:12.8px;font-family:'Roboto Medium',sans-serif">26.70</text><path  d="M 490 351
L 490 356" style="stroke-width:1;stroke:rgba(51,51,51,1.0);fill:none"/><text x="474" y="373" style="stroke-width:0;stroke:none;fill:rgba(51,51,51,1.0);font-size:12.8px;font-family:'Roboto Medium',sans-serif">30.00</text><path  d="M 543 351
L 543 356" style="stroke-width:1;stroke:rgba(51,51,51,1.0);fill:none"/><text x="527" y="373" style="stroke-width:0;stroke:none;fill:rgba(51,51,51,1.0);font-size:12.8px;font-family:'Roboto Medium',sans-serif">33.40</text><path  d="M 595 351
L 595 356" style="stroke-width:1;stroke:rgba(51,51,51,1.0);fill:none"/><text x="579" y="373" style="stroke-width:0;stroke:none;fill:rgba(51,51,51,1.0);font-size:12.8px;font-family:'Roboto Medium',sans-serif">36.70</text><path  d="M 647 351
L 647 356" style="stroke-width:1;stroke:rgba(51,51,51,1.0);fill:none"/><text x="631" y="373" style="stroke-width:0;stroke:none;fill:rgba(51,51,51,1.0);font-size:12.8px;font-family:'Roboto Medium',sans-serif">40.00</text><path  d="M 701 351
L 701 356" style="stroke-width:1;stroke:rgba(51,51,51,1.0);fill:none"/><text x="685" y="373" style="stroke-width:0;stroke:none;fill:rgba(51,51,51,1.0);font-size:12.8px;font-family:'Roboto Medium',sans-serif">43.40</text><path  d="M 752 351
L 752 356" style="stroke-width:1;stroke:rgba(51,51,51,1.0);fill:none"/><text x="736" y="373" style="stroke-width:0;stroke:none;fill:rgba(51,51,51,1.0);font-size:12.8px;font-family:'Roboto Medium',sans-serif">46.70</text><path  d="M 804 351
L 804 356" style="stroke-width:1;stroke:rgba(51,51,51,1.0);fill:none"/><text x="788" y="373" style="stroke-width:0;stroke:none;fill:rgba(51,51,51,1.0);font-size:12.8px;font-family:'Roboto Medium',sans-serif">50.00</text><path  d="M 858 351
L 858 356" style="stroke-width:1;stroke:rgba(51,51,51,1.0);fill:none"/><text x="842" y="373" style="stroke-width:0;stroke:none;fill:rgba(51,51,51,1.0);font-size:12.8px;font-family:'Roboto Medium',sans-serif">53.40</text><path  d="M 910 351
L 910 356" style="stroke-width:1;stroke:rgba(51,51,51,1.0);fill:none"/><text x="894" y="373" style="stroke-width:0;stroke:none;fill:rgba(51,51,51,1.0);font-size:12.8px;font-family:'Roboto Medium',sans-serif">56.70</text><path  d="M 961 351
L 961 356" style="stroke-width:1;stroke:rgba(51,51,51,1.0);fill:none"/><text x="945" y="373" style="stroke-width:0;stroke:none;fill:rgba(51,51,51,1.0);font-size:12.8px;font-family:'Roboto Medium',sans-serif">60.00</text><text x="411" y="395" style="stroke-width:0;stroke:none;fill:rgba(51,51,51,1.0);font-size:12.8px;font-family:'Roboto Medium',sans-serif">Rate of requests per minute</text><path  d="M 72 351
L 72 11" style="stroke-width:0;stroke:none;fill:none"/><path  d="M 124 351
L 124 11" style="stroke-width:0;stroke:none;fill:none"/><path  d="M 176 351
L 176 11" style="stroke-width:0;stroke:none;fill:none"/><path  d="M 229 351
L 229 11" style="stroke-width:0;stroke:none;fill:none"/><path  d="M 281 351
L 281 11" style="stroke-width:0;stroke:none;fill:none"/><path  d="M 333 351
L 333 11" style="stroke-width:0;stroke:none;fill:none"/><path  d="M 386 351
L 386 11" style="stroke-width:0;stroke:none;fill:none"/><path  d="M 438 351
L 438 11" style="stroke-width:0;stroke:none;fill:none"/><path  d="M 490 351
L 490 11" style="stroke-width:0;stroke:none;fill:none"/><path  d="M 543 351
L 543 11" style="stroke-width:0;stroke:none;fill:none"/><path  d="M 595 351
L 595 11" style="stroke-width:0;stroke:none;fill:none"/><path  d="M 647 351
L 647 11" style="stroke-width:0;stroke:none;fill:none"/><path  d="M 701 351
L 701 11" style="stroke-width:0;stroke:none;fill:none"/><path  d="M 752 351
L 752 11" style="stroke-width:0;stroke:none;fill:none"/><path  d="M 804 351
L 804 11" style="stroke-width:0;stroke:none;fill:none"/><path  d="M 858 351
L 858 11" style="stroke-width:0;stroke:none;fill:none"/><path  d="M 910 351
L 910 11" style="stroke-width:0;stroke:none;fill:none"/><path  d="M 962 351
L 962 11" style="stroke-width:1;stroke:rgba(51,51,51,1.0);fill:none"/><path  d="M 962 351
L 967 351" style="stroke-width:1;stroke:rgba(51,51,51,1.0);fill:none"/><text x="972" y="357" style="stroke-width:0;stroke:none;fill:rgba(51,51,51,1.0);font-size:12.8px;font-family:'Roboto Medium',sans-serif">0.00</text><path  d="M 962 307
L 967 307" style="stroke-width:1;stroke:rgba(51,51,51,1.0);fill:none"/><text x="972" y="313" style="stroke-width:0;stroke:none;fill:rgba(51,51,51,1.0);font-size:12.8px;font-family:'Roboto Medium',sans-serif">0.00</text><path  d="M 962 264
L 967 264" style="stroke-width:1;stroke:rgba(51,51,51,1.0);fill:none"/><text x="972" y="270" style="stroke-width:0;stroke:none;fill:rgba(51,51,51,1.0);font-size:12.8px;font-family:'Roboto Medium',sans-serif">0.00</text><path  d="M 962 221
L 967 221" style="stroke-width:1;stroke:rgba(51,51,51,1.0);fill:none"/><text x="972" y="227" style="stroke-width:0;stroke:none;fill:rgba(51,51,51,1.0);font-size:12.8px;font-family:'Roboto Medium',sans-serif">0.00</text><path  d="M 962 180
L 967 180" style="stroke-width:1;stroke:rgba(51,51,51,1.0);fill:none"/><text x="972" y="186" style="stroke-width:0;stroke:none;fill:rgba(51,51,51,1.0);font-size:12.8px;font-family:'Roboto Medium',sans-serif">0.01</text><path  d="M 962 137
L 967 137" style="stroke-width:1;stroke:rgba(51,51,51,1.0);fill:none"/><text x="972" y="143" style="stroke-width:0;stroke:none;fill:rgba(51,51,51,1.0);font-size:12.8px;font-family:'Roboto Medium',sans-serif">0.01</text><path  d="M 962 94
L 967 94" style="stroke-width:1;stroke:rgba(51,51,51,1.0);fill:none"/><text x="972" y="100" style="stroke-width:0;stroke:none;fill:rgba(51,51,51,1.0);font-size:12.8px;font-family:'Roboto Medium',sans-serif">0.01</text><path  d="M 962 51
L 967 51" style="stroke-width:1;stroke:rgba(51,51,51,1.0);fill:none"/><text x="972" y="57" style="stroke-width:0;stroke:none;fill:rgba(51,51,51,1.0);font-size:12.8px;font-family:'Roboto Medium',sans-serif">0.01</text><path  d="M 962 11
L 967 11" style="stroke-width:1;stroke:rgba(51,51,51,1.0);fill:none"/><text x="972" y="17" style="stroke-width:0;stroke:none;fill:rgba(51,51,51,1.0);font-size:12.8px;font-family:'Roboto Medium',sans-serif">0.01</text><text x="1008" y="121" style="stroke-width:0;stroke:none;fill:rgba(51,51,51,1.0);font-size:12.8px;font-family:'Roboto Medium',sans-serif" transform="rotate(90.00,1008,121)">Latency (in Seconds)</text><path  d="M 18 351
L 961 351" style="stroke-width:0;stroke:none;fill:none"/><path  d="M 18 307
L 961 307" style="stroke-width:0;stroke:none;fill:none"/><path  d="M 18 264
L 961 264" style="stroke-width:0;stroke:none;fill:none"/><path  d="M 18 221
L 961 221" style="stroke-width:0;stroke:none;fill:none"/><path  d="M 18 180
L 961 180" style="stroke-width:0;stroke:none;fill:none"/><path  d="M 18 137
L 961 137" style="stroke-width:0;stroke:none;fill:none"/><path  d="M 18 94
L 961 94" style="stroke-width:0;stroke:none;fill:none"/><path  d="M 18 51
L 961 51" style="stroke-width:0;stroke:none;fill:none"/><path  d="M 17 351
L 17 11" style="stroke-width:1;stroke:rgba(51,51,51,1.0);fill:none"/><path  d="M 17 -9223372036854775457
L 12 -9223372036854775457" style="stroke-width:1;stroke:rgba(51,51,51,1.0);fill:none"/><text x="-19" y="-9223372036854775451" style="stroke-width:0;stroke:none;fill:rgba(51,51,51,1.0);font-size:12.8px;font-family:'Roboto Medium',sans-serif">0.00</text><path  d="M 17 -9223372036854775457
L 12 -9223372036854775457" style="stroke-width:1;stroke:rgba(51,51,51,1.0);fill:none"/><text x="-19" y="-9223372036854775451" style="stroke-width:0;stroke:none;fill:rgba(51,51,51,1.0);font-size:12.8px;font-family:'Roboto Medium',sans-serif">0.00</text><path  d="M 17 -9223372036854775457
L 12 -9223372036854775457" style="stroke-width:1;stroke:rgba(51,51,51,1.0);fill:none"/><text x="-19" y="-9223372036854775451" style="stroke-width:0;stroke:none;fill:rgba(51,51,51,1.0);font-size:12.8px;font-family:'Roboto Medium',sans-serif">0.00</text><path  d="M 17 -9223372036854775457
L 12 -9223372036854775457" style="stroke-width:1;stroke:rgba(51,51,51,1.0);fill:none"/><text x="-19" y="-9223372036854775451" style="stroke-width:0;stroke:none;fill:rgba(51,51,51,1.0);font-size:12.8px;font-family:'Roboto Medium',sans-serif">0.00</text><path  d="M 17 -9223372036854775457
L 12 -9223372036854775457" style="stroke-width:1;stroke:rgba(51,51,51,1.0);fill:none"/><text x="-19" y="-9223372036854775451" style="stroke-width:0;stroke:none;fill:rgba(51,51,51,1.0);font-size:12.8px;font-family:'Roboto Medium',sans-serif">0.00</text><path  d="M 17 -9223372036854775457
L 12 -9223372036854775457" style="stroke-width:1;stroke:rgba(51,51,51,1.0);fill:none"/><text x="-19" y="-9223372036854775451" style="stroke-width:0;stroke:none;fill:rgba(51,51,51,1.0);font-size:12.8px;font-family:'Roboto Medium',sans-serif">0.00</text><path  d="M 17 -9223372036854775457
L 12 -9223372036854775457" style="stroke-width:1;stroke:rgba(51,51,51,1.0);fill:none"/><text x="-19" y="-9223372036854775451" style="stroke-width:0;stroke:none;fill:rgba(51,51,51,1.0);font-size:12.8px;font-family:'Roboto Medium',sans-serif">0.00</text><path  d="M 17 -9223372036854775457
L 12 -9223372036854775457" style="stroke-width:1;stroke:rgba(51,51,51,1.0);fill:none"/><text x="-19" y="-9223372036854775451" style="stroke-width:0;stroke:none;fill:rgba(51,51,51,1.0);font-size:12.8px;font-family:'Roboto Medium',sans-serif">0.00</text><path  d="M 17 -9223372036854775457
L 12 -9223372036854775457" style="stroke-width:1;stroke:rgba(51,51,51,1.0);fill:none"/><text x="-19" y="-9223372036854775451" style="stroke-width:0;stroke:none;fill:rgba(51,51,51,1.0);font-size:12.8px;font-family:'Roboto Medium',sans-serif">0.00</text><path  d="M 18 -9223372036854775457
L 961 -9223372036854775457" style="stroke-width:0;stroke:none;fill:none"/><path  d="M 18 -9223372036854775457
L 961 -9223372036854775457" style="stroke-width:0;stroke:none;fill:none"/><path  d="M 18 -9223372036854775457
L 961 -9223372036854775457" style="stroke-width:0;stroke:none;fill:none"/><path  d="M 18 -9223372036854775457
L 961 -9223372036854775457" style="stroke-width:0;stroke:none;fill:none"/><path  d="M 18 -9223372036854775457
L 961 -9223372036854775457" style="stroke-width:0;stroke:none;fill:none"/><path  d="M 18 -9223372036854775457
L 961 -9223372036854775457" style="stroke-width:0;stroke:none;fill:none"/><path  d="M 18 -9223372036854775457
L 961 -9223372036854775457" style="stroke-width:0;stroke:none;fill:none"/><path  d="M 18 -9223372036854775457
L 961 -9223372036854775457" style="stroke-width:0;stroke:none;fill:none"/><path  d="M 18 351
L 961 17" style="stroke-width:1;stroke:rgba(0,116,217,1.0);fill:none"/><path  d="M 18 351
L 961 17" style="stroke-width:1;stroke:rgba(0,217,101,1.0);fill:none"/><path  d="M 18 351
L 961 17" style="stroke-width:1;stroke:rgba(217,0,116,1.0);fill:none"/><path  d="M 18 351
L 961 17" style="stroke-width:1;stroke:rgba(0,217,210,1.0);fill:none"/><path  d="M 18 351
L 961 17" style="stroke-width:1;stroke:rgba(217,101,0,1.0);fill:none"/><text x="391" y="33" style="stroke-width:0;stroke:none;fill:rgba(51,51,51,1.0);font-size:23.0px;font-family:'Roboto Medium',sans-serif">RPM v/s Latency Graph</text><path  d="M 18 -3
L 961 -3
L 961 14
L 18 14
L 18 -3" style="stroke-width:1;stroke:rgba(51,51,51,1.0);fill:rgba(255,255,255,1.0)"/><text x="25" y="9" style="stroke-width:0;stroke:none;fill:rgba(51,51,51,1.0);font-size:10.2px;font-family:'Roboto Medium',sans-serif">MeanLatency</text><path  d="M 92 4
L 117 4" style="stroke-width:1;stroke:rgba(0,116,217,1.0);fill:none"/><text x="137" y="9" style="stroke-width:0;stroke:none;fill:rgba(51,51,51,1.0);font-size:10.2px;font-family:'Roboto Medium',sans-serif">P50Latency</text><path  d="M 197 4
L 222 4" style="stroke-width:1;stroke:rgba(0,217,101,1.0);fill:none"/><text x="242" y="9" style="stroke-width:0;stroke:none;fill:rgba(51,51,51,1.0);font-size:10.2px;font-family:'Roboto Medium',sans-serif">P95Latency</text><path  d="M 302 4
L 327 4" style="stroke-width:1;stroke:rgba(217,0,116,1.0);fill:none"/><text x="347" y="9" style="stroke-width:0;stroke:none;fill:rgba(51,51,51,1.0);font-size:10.2px;font-family:'Roboto Medium',sans-serif">P99Latency</text><path  d="M 407 4
L 432 4" style="stroke-width:1;stroke:rgba(0,217,210,1.0);fill:none"/><text x="452" y="9" style="stroke-width:0;stroke:none;fill:rgba(51,51,51,1.0);font-size:10.2px;font-family:'Roboto Medium',sans-serif">MaxLatency</text><path  d="M 513 4
L 538 4" style="stroke-width:1;stroke:rgba(217,101,0,1.0);fill:none"/></svg>